<svg width="25" height="25" viewBox="0 0 25 25" fill="none" xmlns="http://www.w3.org/2000/svg">
    <path opacity="0.4" fill-rule="evenodd" clip-rule="evenodd" d="M12.3049 0.155029C9.12857 0.155814 6.08262 1.41815 3.8369 3.66443C1.59118 5.9107 0.32959 8.95697 0.32959 12.1333C0.32959 15.3096 1.59118 18.3559 3.8369 20.6021C6.08262 22.8484 9.12857 24.1108 12.3049 24.1115V0.155029Z" fill="#FCD490"/>
    <path fill-rule="evenodd" clip-rule="evenodd" d="M24.3885 24.1115H12.3049C5.68762 24.0827 0.326613 18.7656 0.326613 12.1332L0.324707 12.1328H12.305L12.3049 12.1332L12.3249 12.1328H12.9309C15.9599 12.2106 18.842 13.4544 20.9765 15.6049C23.1111 17.7554 24.3333 20.6467 24.3885 23.6762V24.1115Z" fill="#FCD490"/>
    <path opacity="0.51" fill-rule="evenodd" clip-rule="evenodd" d="M12.3053 12.1328L0.326936 12.1332C0.321252 14.6084 1.08767 17.0238 2.51944 19.0429C2.52983 19.0575 2.5403 19.0722 2.55068 19.0868C3.66153 20.638 5.12546 21.9026 6.82156 22.7763C8.51767 23.65 10.3973 24.1077 12.3052 24.1115L12.3053 12.1328Z" fill="#FFF0E4"/>
    <circle cx="19.2905" cy="6.14426" r="4.99094" fill="#FCD490"/>
</svg>
