<svg xmlns="http://www.w3.org/2000/svg" width="35" height="35" viewBox="0 0 35 35" fill="none">
  <path opacity="0.4" fill-rule="evenodd" clip-rule="evenodd" d="M16.9941 0.640625C12.4884 0.641738 8.16775 2.43237 4.9822 5.61871C1.79664 8.80505 0.00708008 13.1262 0.00708008 17.6318C0.00708008 22.1374 1.79664 26.4585 4.9822 29.6449C8.16775 32.8312 12.4884 34.6218 16.9941 34.623V0.640625Z" fill="#4537E6"/>
  <path fill-rule="evenodd" clip-rule="evenodd" d="M34.1345 34.6231H16.9939C7.6073 34.5822 0.00270321 27.04 0.00270321 17.632L0 17.6313H16.994L16.9939 17.632L17.0223 17.6313H17.8818C22.1785 17.7417 26.2668 19.506 29.2946 22.5565C32.3224 25.607 34.0562 29.7084 34.1345 34.0057V34.6231Z" fill="#4537E6"/>
  <path opacity="0.51" fill-rule="evenodd" clip-rule="evenodd" d="M16.9945 17.6313L0.00321834 17.632C-0.00484337 21.143 1.08232 24.5692 3.11328 27.4333C3.12802 27.454 3.14288 27.4749 3.1576 27.4956C4.73335 29.696 6.80993 31.4898 9.21585 32.7292C11.6218 33.9685 14.288 34.6177 16.9944 34.6231L16.9945 17.6313Z" fill="#F8FAFC"/>
  <circle cx="26.9031" cy="9.13629" r="7.07965" fill="#4537E6"/>
</svg>