<svg width="104" height="25" viewBox="0 0 104 25" fill="none" xmlns="http://www.w3.org/2000/svg">
<g id="Logo">
<g id="Logo_2">
<g id="Logo_3">
<g id="De o">
<path id="Vector" d="M93.9258 22.5393C88.8975 22.5393 84.938 18.7612 84.938 13.5152C84.938 8.26925 88.8975 4.53931 93.9258 4.53931C98.9785 4.53931 102.938 8.26925 102.938 13.5152C102.938 18.7612 98.9785 22.5393 93.9258 22.5393ZM93.9258 18.4725C96.6708 18.4725 98.2011 16.2345 98.2011 13.5152C98.2011 10.796 96.6708 8.60615 93.9258 8.60615C91.1809 8.60615 89.6505 10.796 89.6505 13.5152C89.6505 16.2345 91.1809 18.4725 93.9258 18.4725Z" fill="#0A2540"/>
<g id="Group 2397">
<path id="Subtract" fill-rule="evenodd" clip-rule="evenodd" d="M65.938 22.3562C65.938 22.348 65.938 22.3399 65.938 22.3318C65.938 17.0202 69.8975 13.2437 74.9258 13.2437C79.9785 13.2437 83.938 17.0202 83.938 22.3318C83.938 22.3399 83.938 22.348 83.938 22.3562H79.2011C79.2011 22.348 79.2011 22.3399 79.2011 22.3318C79.2011 19.5785 77.6708 17.3613 74.9258 17.3613C72.1809 17.3613 70.6505 19.5785 70.6505 22.3318C70.6505 22.3399 70.6506 22.348 70.6506 22.3562H65.938Z" fill="#635AFF"/>
<path id="Subtract_2" fill-rule="evenodd" clip-rule="evenodd" d="M83.938 4.35601C83.938 4.36412 83.938 4.37224 83.938 4.38037C83.938 9.69193 79.9785 13.4685 74.9501 13.4685C69.8975 13.4685 65.938 9.69193 65.938 4.38037C65.938 4.37224 65.938 4.36412 65.938 4.35601H70.6749C70.6748 4.36412 70.6748 4.37224 70.6748 4.38037C70.6748 7.13361 72.2052 9.35082 74.9501 9.35082C77.6951 9.35082 79.2254 7.13361 79.2254 4.38037C79.2254 4.37224 79.2254 4.36412 79.2254 4.35601H83.938Z" fill="#635AFF"/>
</g>
<g id="Group 2398">
<path id="Subtract_3" fill-rule="evenodd" clip-rule="evenodd" d="M46.938 22.3562C46.938 22.348 46.938 22.3399 46.938 22.3318C46.938 17.0202 50.8975 13.2437 55.9258 13.2437C60.9785 13.2437 64.938 17.0202 64.938 22.3318C64.938 22.3399 64.938 22.348 64.938 22.3562H60.2011C60.2011 22.348 60.2011 22.3399 60.2011 22.3318C60.2011 19.5785 58.6708 17.3613 55.9258 17.3613C53.1809 17.3613 51.6505 19.5785 51.6505 22.3318C51.6505 22.3399 51.6506 22.348 51.6506 22.3562H46.938Z" fill="#0A2540"/>
<path id="Subtract_4" fill-rule="evenodd" clip-rule="evenodd" d="M64.938 4.35601C64.938 4.36412 64.938 4.37224 64.938 4.38037C64.938 9.69193 60.9785 13.4685 55.9501 13.4685C50.8975 13.4685 46.938 9.69193 46.938 4.38037C46.938 4.37224 46.938 4.36412 46.938 4.35601H51.6749C51.6748 4.36412 51.6748 4.37224 51.6748 4.38037C51.6748 7.13361 53.2052 9.35082 55.9501 9.35082C58.6951 9.35082 60.2254 7.13361 60.2254 4.38037C60.2254 4.37224 60.2254 4.36412 60.2254 4.35601H64.938Z" fill="#0A2540"/>
</g>
<path id="Vector_2" d="M44.938 18.1273V22.1916H32.3484V4.39771H44.7645V8.46205H37.0323V11.0147H44.0458V15.079H37.0323V18.1273H44.938Z" fill="#0A2540"/>
</g>
<g id="img">
<g id="Group">
<path id="Vector_3" opacity="0.4" fill-rule="evenodd" clip-rule="evenodd" d="M12.4167 0.355957C9.24039 0.356741 6.19443 1.61908 3.94871 3.86535C1.70299 6.11163 0.441406 9.15789 0.441406 12.3342C0.441406 15.5105 1.70299 18.5568 3.94871 20.8031C6.19443 23.0493 9.24039 24.3117 12.4167 24.3125V0.355957Z" fill="#635AFF"/>
<path id="Vector_4" fill-rule="evenodd" clip-rule="evenodd" d="M24.5003 24.3124H12.4167C5.79944 24.2836 0.438429 18.9665 0.438429 12.3342L0.436523 12.3337H12.4168L12.4167 12.3342L12.4367 12.3337H13.0427C16.0717 12.4115 18.9538 13.6553 21.0883 15.8058C23.2229 17.9563 24.4451 20.8477 24.5003 23.8772V24.3124Z" fill="#635AFF"/>
<path id="Vector_5" opacity="0.51" fill-rule="evenodd" clip-rule="evenodd" d="M12.4171 12.3337L0.438752 12.3342C0.433069 14.8094 1.19949 17.2247 2.63125 19.2438C2.64165 19.2584 2.65212 19.2731 2.6625 19.2878C3.77335 20.8389 5.23727 22.1036 6.93338 22.9772C8.62948 23.8509 10.5091 24.3086 12.417 24.3124L12.4171 12.3337Z" fill="#F6F9FC"/>
</g>
<circle id="Ellipse 31" cx="19.4023" cy="6.34519" r="4.99094" fill="#635AFF"/>
</g>
</g>
</g>
</g>
</svg>
