<svg width="101" height="25" viewBox="0 0 101 25" fill="none" xmlns="http://www.w3.org/2000/svg">
<path d="M86.3607 22.3384C81.3323 22.3384 77.3728 18.5603 77.3728 13.3143C77.3728 8.06833 81.3323 4.33838 86.3607 4.33838C91.4133 4.33838 95.3728 8.06833 95.3728 13.3143C95.3728 18.5603 91.4133 22.3384 86.3607 22.3384ZM86.3607 18.2715C89.1056 18.2715 90.636 16.0336 90.636 13.3143C90.636 10.5951 89.1056 8.40522 86.3607 8.40522C83.6157 8.40522 82.0854 10.5951 82.0854 13.3143C82.0854 16.0336 83.6157 18.2715 86.3607 18.2715Z" fill="#111111"/>
<path fill-rule="evenodd" clip-rule="evenodd" d="M58.3728 22.1552C58.3728 22.1471 58.3728 22.139 58.3728 22.1309C58.3728 16.8193 62.3323 13.0427 67.3607 13.0427C72.4133 13.0427 76.3728 16.8193 76.3728 22.1309C76.3728 22.139 76.3728 22.1471 76.3728 22.1552H71.6359C71.6359 22.1471 71.636 22.139 71.636 22.1309C71.636 19.3776 70.1056 17.1604 67.3607 17.1604C64.6157 17.1604 63.0854 19.3776 63.0854 22.1309C63.0854 22.139 63.0854 22.1471 63.0854 22.1552H58.3728Z" fill="#FCD490"/>
<path fill-rule="evenodd" clip-rule="evenodd" d="M76.3728 4.15508C76.3728 4.1632 76.3728 4.17132 76.3728 4.17944C76.3728 9.49101 72.4133 13.2676 67.3849 13.2676C62.3323 13.2676 58.3728 9.49101 58.3728 4.17944C58.3728 4.17132 58.3728 4.1632 58.3728 4.15508H63.1097C63.1097 4.16319 63.1096 4.17132 63.1096 4.17944C63.1096 6.93268 64.64 9.1499 67.3849 9.1499C70.1299 9.1499 71.6603 6.93268 71.6603 4.17944C71.6603 4.17132 71.6602 4.16319 71.6602 4.15508H76.3728Z" fill="#FCD490"/>
<path d="M36.4386 22.1125H31.7136V4.16255H39.0636C43.9136 4.16255 46.6886 6.33755 46.6886 10.1625C46.6886 12.4625 45.3136 14.3625 42.8886 15.3875L47.2886 22.1125H41.6636L37.9886 16.1375H36.4386V22.1125ZM36.4386 8.06255V12.2375H38.8636C40.9636 12.2375 41.9386 11.5875 41.9386 10.1625C41.9386 8.73755 40.9636 8.06255 38.8636 8.06255H36.4386Z" fill="#111111"/>
<path d="M55.3087 22.1392H50.5837V4.18916H55.3087V22.1392Z" fill="#111111"/>
<path opacity="0.4" fill-rule="evenodd" clip-rule="evenodd" d="M12.3049 0.155029C9.12857 0.155814 6.08262 1.41815 3.8369 3.66443C1.59118 5.9107 0.32959 8.95697 0.32959 12.1333C0.32959 15.3096 1.59118 18.3559 3.8369 20.6021C6.08262 22.8484 9.12857 24.1108 12.3049 24.1115V0.155029Z" fill="#FCD490"/>
<path fill-rule="evenodd" clip-rule="evenodd" d="M24.3885 24.1115H12.3049C5.68762 24.0827 0.326613 18.7656 0.326613 12.1332L0.324707 12.1328H12.305L12.3049 12.1332L12.3249 12.1328H12.9309C15.9599 12.2106 18.842 13.4544 20.9765 15.6049C23.1111 17.7554 24.3333 20.6467 24.3885 23.6762V24.1115Z" fill="#FCD490"/>
<path opacity="0.51" fill-rule="evenodd" clip-rule="evenodd" d="M12.3053 12.1328L0.326936 12.1332C0.321252 14.6084 1.08767 17.0238 2.51944 19.0429C2.52983 19.0575 2.5403 19.0722 2.55068 19.0868C3.66153 20.638 5.12546 21.9026 6.82156 22.7763C8.51767 23.65 10.3973 24.1077 12.3052 24.1115L12.3053 12.1328Z" fill="#FFF0E4"/>
<circle cx="19.2905" cy="6.14426" r="4.99094" fill="#FCD490"/>
</svg>
